<?xml version="1.0" encoding="iso-8859-1"?>
<!-- Generator: Adobe Illustrator 19.0.0, SVG Export Plug-In . SVG Version: 6.00 Build 0)  -->
<svg version="1.1" id="Layer_1" xmlns="http://www.w3.org/2000/svg" xmlns:xlink="http://www.w3.org/1999/xlink" x="0px" y="0px"
	 viewBox="0 0 512 512" style="enable-background:new 0 0 512 512;" xml:space="preserve">
<path style="fill:#1E0478;" d="M509.269,298.295c4.972,17.741,3.108,36.545-5.215,52.969c-8.333,16.424-22.418,29.034-39.663,35.513
	c-17.256,6.458-36.155,6.226-53.232-0.674c-17.077-6.89-30.846-19.848-38.768-36.471l-15.707-32.805
	c-9.65,12.947-25.041,20.985-41.749,20.985c-22.776,0-42.729-14.865-49.556-36.092h-18.299
	c-6.827,21.228-26.779,36.092-49.556,36.092c-16.708,0-32.089-8.027-41.749-20.964l-15.665,32.795
	c-12.305,25.831-41.138,41.855-70.299,41.855c-8.965,0-17.962-1.517-26.516-4.72C9.299,374.019-7.546,336.81,3.241,298.295
	l32.658-116.62c6.31-22.534,21.891-41.528,42.761-52.116c20.869-10.598,45.405-11.957,67.317-3.74
	c8.017,3.002,15.423,7.153,22.039,12.294c6.626,5.141,12.442,11.272,17.298,18.267c0.011,0,0.053,0.032,0.137,0.032h141.609
	c0.095,0,0.137-0.042,0.137-0.042c9.713-13.969,23.314-24.536,39.337-30.551c21.923-8.217,46.458-6.858,67.328,3.74
	c20.859,10.587,36.45,29.582,42.75,52.116L509.269,298.295z M485.26,341.74c5.942-11.715,7.258-25.125,3.719-37.767l-32.647-116.62
	c-4.793-17.109-16.16-30.962-32.005-39.01c-15.855-8.038-33.753-9.039-50.388-2.802c-11.999,4.509-22.176,12.41-29.445,22.871
	c-3.951,5.678-10.472,9.07-17.435,9.07H185.451c-6.974,0-13.495-3.392-17.435-9.081c-7.258-10.451-17.435-18.352-29.434-22.86
	c-7.216-2.707-14.675-4.045-22.091-4.045c-9.692,0-19.321,2.297-28.296,6.848c-15.844,8.049-27.211,21.902-32.005,39.01
	l-32.658,116.62c-7.891,28.181,3.276,54.107,27.159,63.072c26.126,9.797,59.016-2.581,70.404-26.474l21.86-45.742
	c2.402-5.036,7.575-8.112,13.147-7.817c5.573,0.295,10.366,3.866,12.22,9.113c4.372,12.326,16.108,20.617,29.202,20.617
	c14.78,0,27.559-10.503,30.393-24.967c1.264-6.447,6.942-11.125,13.506-11.125h29.613c6.563,0,12.241,4.677,13.506,11.125
	c2.834,14.464,15.613,24.967,30.393,24.967c13.095,0,24.82-8.291,29.192-20.627c1.865-5.236,6.658-8.818,12.21-9.113
	c5.583-0.284,10.756,2.771,13.168,7.806l21.902,45.742c5.657,11.873,15.465,21.101,27.643,26.021
	c12.168,4.909,25.642,5.078,37.936,0.474C469.279,362.43,479.319,353.444,485.26,341.74z"/>
<path style="fill:#9B8CCC;" d="M488.979,303.973c3.54,12.642,2.223,26.053-3.719,37.767c-5.942,11.704-15.981,20.69-28.275,25.305
	c-12.294,4.604-25.768,4.435-37.936-0.474c-12.178-4.92-21.986-14.148-27.643-26.021l-21.902-45.742
	c-2.412-5.036-7.585-8.091-13.168-7.806c-5.552,0.295-10.345,3.877-12.21,9.113c-4.372,12.336-16.097,20.627-29.192,20.627
	c-14.78,0-27.559-10.503-30.393-24.967c-1.264-6.447-6.942-11.125-13.506-11.125h-29.613c-6.563,0-12.241,4.677-13.506,11.125
	c-2.834,14.464-15.613,24.967-30.393,24.967c-13.095,0-24.83-8.291-29.202-20.617c-1.854-5.246-6.647-8.818-12.22-9.113
	c-5.573-0.295-10.745,2.781-13.147,7.817l-21.86,45.742c-11.388,23.893-44.278,36.271-70.404,26.474
	c-23.882-8.965-35.049-34.891-27.159-63.072l32.658-116.62c4.793-17.109,16.16-30.962,32.005-39.01
	c8.976-4.551,18.604-6.848,28.296-6.848c7.416,0,14.875,1.338,22.091,4.045c11.999,4.509,22.176,12.41,29.434,22.86
	c3.94,5.689,10.461,9.081,17.435,9.081h141.609c6.963,0,13.484-3.392,17.435-9.07c7.269-10.461,17.446-18.362,29.445-22.871
	c16.634-6.237,34.533-5.236,50.388,2.802c15.844,8.049,27.211,21.902,32.005,39.01L488.979,303.973z M441.699,218.641
	c0-7.353-5.963-13.316-13.316-13.316c-7.343,0-13.305,5.963-13.305,13.316c0,7.343,5.963,13.305,13.305,13.305
	C435.736,231.947,441.699,225.984,441.699,218.641z M410.274,187.216c0-7.353-5.963-13.316-13.316-13.316
	c-7.343,0-13.305,5.963-13.305,13.316s5.963,13.305,13.305,13.305C404.311,200.521,410.274,194.569,410.274,187.216z
	 M410.274,250.056c0-7.343-5.963-13.305-13.316-13.305c-7.343,0-13.305,5.963-13.305,13.305c0,7.353,5.963,13.316,13.305,13.316
	C404.311,263.372,410.274,257.409,410.274,250.056z M378.848,218.641c0-7.353-5.963-13.316-13.305-13.316
	c-7.353,0-13.316,5.963-13.316,13.316c0,7.343,5.963,13.305,13.316,13.305C372.886,231.947,378.848,225.984,378.848,218.641z
	 M336.14,285.748c0-11.694-9.513-21.207-21.207-21.207c-11.704,0-21.217,9.513-21.217,21.207c0,11.694,9.513,21.217,21.217,21.217
	C326.628,306.965,336.14,297.441,336.14,285.748z M302.534,218.641c0-5.826-4.72-10.535-10.535-10.535h-11.525
	c-5.826,0-10.535,4.709-10.535,10.535c0,5.815,4.709,10.535,10.535,10.535H292C297.815,229.176,302.534,224.456,302.534,218.641z
	 M242.57,218.641c0-5.826-4.72-10.535-10.535-10.535h-11.525c-5.815,0-10.535,4.709-10.535,10.535
	c0,5.815,4.72,10.535,10.535,10.535h11.525C237.851,229.176,242.57,224.456,242.57,218.641z M218.73,285.748
	c0-11.694-9.513-21.207-21.207-21.207s-21.207,9.513-21.207,21.207c0,11.694,9.513,21.217,21.207,21.217
	S218.73,297.441,218.73,285.748z M157.713,218.641c0-5.826-4.709-10.535-10.535-10.535h-18.647v-18.657
	c0-5.815-4.72-10.535-10.535-10.535c-5.826,0-10.535,4.72-10.535,10.535v18.657H88.805c-5.815,0-10.535,4.709-10.535,10.535
	c0,5.815,4.72,10.535,10.535,10.535h18.657v18.647c0,5.826,4.709,10.535,10.535,10.535c5.815,0,10.535-4.709,10.535-10.535v-18.647
	h18.647C153.004,229.176,157.713,224.456,157.713,218.641z"/>
<g>
	<path style="fill:#1E0478;" d="M428.383,205.325c7.353,0,13.316,5.963,13.316,13.316c0,7.343-5.963,13.305-13.316,13.305
		c-7.343,0-13.305-5.963-13.305-13.305C415.078,211.288,421.04,205.325,428.383,205.325z"/>
	<path style="fill:#1E0478;" d="M396.958,173.9c7.353,0,13.316,5.963,13.316,13.316s-5.963,13.305-13.316,13.305
		c-7.343,0-13.305-5.952-13.305-13.305S389.615,173.9,396.958,173.9z"/>
	<path style="fill:#1E0478;" d="M396.958,236.75c7.353,0,13.316,5.963,13.316,13.305c0,7.353-5.963,13.316-13.316,13.316
		c-7.343,0-13.305-5.963-13.305-13.316C383.652,242.713,389.615,236.75,396.958,236.75z"/>
	<path style="fill:#1E0478;" d="M365.543,205.325c7.343,0,13.305,5.963,13.305,13.316c0,7.343-5.963,13.305-13.305,13.305
		c-7.353,0-13.316-5.963-13.316-13.305C352.227,211.288,358.19,205.325,365.543,205.325z"/>
	<path style="fill:#1E0478;" d="M314.934,264.541c11.694,0,21.207,9.513,21.207,21.207c0,11.694-9.513,21.217-21.207,21.217
		c-11.704,0-21.217-9.523-21.217-21.217C293.717,274.054,303.23,264.541,314.934,264.541z M320.338,285.748
		c0-2.981-2.423-5.404-5.404-5.404c-2.992,0-5.415,2.423-5.415,5.404s2.423,5.415,5.415,5.415
		C317.915,291.163,320.338,288.729,320.338,285.748z"/>
</g>
<path style="fill:#94E7EF;" d="M314.934,280.343c2.981,0,5.404,2.423,5.404,5.404s-2.423,5.415-5.404,5.415
	c-2.992,0-5.415-2.434-5.415-5.415C309.519,282.766,311.942,280.343,314.934,280.343z"/>
<g>
	<path style="fill:#1E0478;" d="M292,208.106c5.815,0,10.535,4.709,10.535,10.535c0,5.815-4.72,10.535-10.535,10.535h-11.525
		c-5.826,0-10.535-4.72-10.535-10.535c0-5.826,4.709-10.535,10.535-10.535H292z"/>
	<path style="fill:#1E0478;" d="M232.036,208.106c5.815,0,10.535,4.709,10.535,10.535c0,5.815-4.72,10.535-10.535,10.535h-11.525
		c-5.815,0-10.535-4.72-10.535-10.535c0-5.826,4.72-10.535,10.535-10.535H232.036z"/>
	<path style="fill:#1E0478;" d="M197.524,264.541c11.694,0,21.207,9.513,21.207,21.207c0,11.694-9.513,21.217-21.207,21.217
		s-21.207-9.523-21.207-21.217C176.317,274.054,185.83,264.541,197.524,264.541z M202.928,285.748c0-2.981-2.423-5.404-5.404-5.404
		c-2.981,0-5.404,2.423-5.404,5.404s2.423,5.415,5.404,5.415C200.505,291.163,202.928,288.729,202.928,285.748z"/>
</g>
<path style="fill:#94E7EF;" d="M197.524,280.343c2.981,0,5.404,2.423,5.404,5.404s-2.423,5.415-5.404,5.415
	c-2.981,0-5.404-2.434-5.404-5.415C192.119,282.766,194.542,280.343,197.524,280.343z"/>
<path style="fill:#1E0478;" d="M147.178,208.106c5.826,0,10.535,4.709,10.535,10.535c0,5.815-4.709,10.535-10.535,10.535h-18.647
	v18.647c0,5.826-4.72,10.535-10.535,10.535c-5.826,0-10.535-4.709-10.535-10.535v-18.647H88.805c-5.815,0-10.535-4.72-10.535-10.535
	c0-5.826,4.72-10.535,10.535-10.535h18.657v-18.657c0-5.815,4.709-10.535,10.535-10.535c5.815,0,10.535,4.72,10.535,10.535v18.657
	L147.178,208.106L147.178,208.106z"/>
<g>
</g>
<g>
</g>
<g>
</g>
<g>
</g>
<g>
</g>
<g>
</g>
<g>
</g>
<g>
</g>
<g>
</g>
<g>
</g>
<g>
</g>
<g>
</g>
<g>
</g>
<g>
</g>
<g>
</g>
</svg>
